<?xml version="1.0" encoding="UTF-8"?>
<!-- Generated by Pixelmator Pro 3.3.13 -->
<svg width="256" height="256" viewBox="0 0 256 256" xmlns="http://www.w3.org/2000/svg">
    <path id="Path" fill="#ffffff" stroke="none" d="M 128 24 C 70.564003 24 24 70.563995 24 128 C 24 177.108002 58.048 218.240005 103.82 229.143997 C 101.452003 228.580002 99.103996 227.947998 96.800003 227.227997 L 96.800003 203.399994 C 96.800003 203.399994 92.900002 204.699997 87.699997 204.699997 C 73.152 204.699997 67.108002 191.720001 65.599998 185.199997 C 64.683998 181.227997 62.292 177.464005 59.723999 175.164001 C 56.655998 172.427994 55.220001 172.419998 55.200001 171.483994 C 55.16 169.520004 57.832001 169.600006 59.099998 169.600006 C 65.599998 169.600006 70.528 176.516006 72.816002 180.091995 C 78.484001 188.919998 84.568001 190.399994 87.699997 190.399994 C 91.599998 190.399994 94.968002 189.815994 97.288002 188.695999 C 98.360001 181.143997 101.720001 174.416 107.199997 169.600006 C 82.811996 164.723999 65.599998 150.735992 65.599998 128 C 65.599998 116.287994 70.300003 105.524002 78.132004 96.832001 C 77.332001 94.563995 76 89.975998 76 82.5 C 76 77.559998 76.344002 71.496002 78.599998 65.600006 C 78.599998 65.600006 93.431999 65.70401 107.419998 78.951996 C 113.875999 77.071991 120.783997 76 128 76 C 135.216003 76 142.123993 77.071991 148.580002 78.951996 C 162.567993 65.70401 177.399994 65.600006 177.399994 65.600006 C 179.667999 71.496002 180 77.559998 180 82.5 C 180 90.559998 178.927994 95.26001 178.272003 97.287994 C 185.863998 105.899994 190.399994 116.496002 190.399994 128 C 190.399994 150.735992 173.188004 164.723999 148.800003 169.600006 C 155.311996 175.320007 159.199997 183.651993 159.199997 193 L 159.199997 227.227997 C 156.895996 227.951996 154.552002 228.580002 152.179993 229.143997 C 197.951996 218.240005 232 177.108002 232 128 C 232 70.563995 185.436005 24 128 24 Z M 135.251999 231.720001 C 132.856003 231.888 130.440002 232 128 232 C 130.440002 232 132.852005 231.884003 135.251999 231.720001 Z M 151.143997 229.384003 C 146.488007 230.444 141.716003 231.188004 136.843994 231.600006 C 141.716003 231.188004 146.488007 230.440002 151.143997 229.384003 Z M 128 232 C 125.559998 232 123.143997 231.888 120.748001 231.720001 C 123.148003 231.884003 125.559998 232 128 232 Z M 119.152 231.600006 C 114.283997 231.188004 109.508003 230.444 104.856003 229.384003 C 109.512001 230.440002 114.283997 231.188004 119.152 231.600006 Z"/>
</svg>
