<?xml version="1.0" encoding="UTF-8"?>
<!-- Generated by Pixelmator Pro 3.3.13 -->
<svg width="250" height="250" viewBox="0 0 250 250" xmlns="http://www.w3.org/2000/svg">
    <path id="Path" fill="#ffffff" stroke="none" d="M 80 15 C 44.162422 15 15 44.162415 15 80 L 15 170 C 15 205.83757 44.162422 235 80 235 L 170 235 C 205.83757 235 235 205.83757 235 170 L 235 80 C 235 44.162415 205.83757 15 170 15 L 80 15 Z M 80 25 L 170 25 C 200.432419 25 225 49.567581 225 80 L 225 170 C 225 200.432419 200.432419 225 170 225 L 80 225 C 49.567581 225 25 200.432419 25 170 L 25 80 C 25 49.567581 49.567581 25 80 25 Z M 185 55 C 179.477158 55 175 59.477158 175 65 C 175 70.522842 179.477158 75 185 75 C 190.522842 75 195 70.522842 195 65 C 195 59.477158 190.522842 55 185 55 Z M 125 70 C 94.683563 70 70 94.683563 70 125 C 70 155.316437 94.683563 180 125 180 C 155.316437 180 180 155.316437 180 125 C 180 94.683563 155.316437 70 125 70 Z M 125 80 C 149.912033 80 170 100.087967 170 125 C 170 149.912033 149.912033 170 125 170 C 100.087967 170 80 149.912033 80 125 C 80 100.087967 100.087967 80 125 80 Z"/>
</svg>
